HIERARCHY
ROOT Hips
{
	OFFSET 0.000000 0.000000 0.000000
	CHANNELS 6 Xposition Yposition Zposition Xrotation Yrotation Zrotation
	JOINT LeftUpLeg_virtual
	{
		OFFSET 0.000000 0.000000 0.000000
		CHANNELS 3 Xrotation Yrotation Zrotation
		JOINT LeftUpLeg
		{
			OFFSET 13.026900 -6.336304 -1.092800
			CHANNELS 3 Xrotation Yrotation Zrotation
			JOINT LeftLeg
			{
				OFFSET 0.524474 -46.096886 9.782700
				CHANNELS 3 Xrotation Yrotation Zrotation
				JOINT LeftFoot
				{
					OFFSET -0.524474 -53.427422 -12.948200
					CHANNELS 3 Xrotation Yrotation Zrotation
					JOINT LeftToeBase
					{
						OFFSET 0.192200 -14.009700 16.364100
						CHANNELS 3 Xrotation Yrotation Zrotation
						JOINT LeftToe_End
						{
							OFFSET -1.784700 -0.561700 9.474800
							CHANNELS 3 Xrotation Yrotation Zrotation
							End Site
							{
								OFFSET 0 0 0
							}
						}
					}
				}
			}
		}
	}
	JOINT RightUpLeg_virtual
	{
		OFFSET 0.000000 0.000000 0.000000
		CHANNELS 3 Xrotation Yrotation Zrotation
		JOINT RightUpLeg
		{
			OFFSET -12.883000 -6.336304 -1.092800
			CHANNELS 3 Xrotation Yrotation Zrotation
			JOINT RightLeg
			{
				OFFSET -0.524587 -46.096825 9.782800
				CHANNELS 3 Xrotation Yrotation Zrotation
				JOINT RightFoot
				{
					OFFSET 0.524587 -53.427383 -12.948300
					CHANNELS 3 Xrotation Yrotation Zrotation
					JOINT RightToeBase
					{
						OFFSET -0.192200 -14.009700 16.364100
						CHANNELS 3 Xrotation Yrotation Zrotation
						JOINT RightToe_End
						{
							OFFSET 1.784700 -0.561700 9.474800
							CHANNELS 3 Xrotation Yrotation Zrotation
							End Site
							{
								OFFSET 0 0 0
							}
						}
					}
				}
			}
		}
	}
	JOINT Spine_virtual
	{
		OFFSET 0.000000 0.000000 0.000000
		CHANNELS 3 Xrotation Yrotation Zrotation
		JOINT Spine
		{
			OFFSET 0.072000 7.257294 -0.789700
			CHANNELS 3 Xrotation Yrotation Zrotation
			JOINT Spine1
			{
				OFFSET 0.000000 12.508769 -0.658067
				CHANNELS 3 Xrotation Yrotation Zrotation
				JOINT Spine1_split
				{
					OFFSET 0.000000 12.508769 -0.658067
					CHANNELS 3 Xrotation Yrotation Zrotation
					JOINT Spine2
					{
						OFFSET 0.000000 12.508769 -0.658067
						CHANNELS 3 Xrotation Yrotation Zrotation
						JOINT Neck_virtual
						{
							OFFSET 0.000000 0.000000 0.000000
							CHANNELS 3 Xrotation Yrotation Zrotation
							JOINT Neck
							{
								OFFSET 0.000000 14.033295 7.520400
								CHANNELS 3 Xrotation Yrotation Zrotation
								JOINT Head
								{
									OFFSET 0.000000 8.198502 5.703100
									CHANNELS 3 Xrotation Yrotation Zrotation
									JOINT HeadTop_End
									{
										OFFSET 0.000000 17.760803 13.332701
										CHANNELS 3 Xrotation Yrotation Zrotation
										End Site
										{
											OFFSET 0 0 0
										}
									}
								}
							}
						}
						JOINT LeftShoulder_virtual
						{
							OFFSET 0.000000 0.000000 0.000000
							CHANNELS 3 Xrotation Yrotation Zrotation
							JOINT LeftShoulder
							{
								OFFSET 6.292450 5.785301 -0.669000
								CHANNELS 3 Xrotation Yrotation Zrotation
								JOINT LeftShoulder_split
								{
									OFFSET 6.292450 5.785301 -0.669000
									CHANNELS 3 Xrotation Yrotation Zrotation
									JOINT LeftArm
									{
										OFFSET 13.907140 -6.093903 1.965100
										CHANNELS 3 Xrotation Yrotation Zrotation
										JOINT LeftForeArm
										{
											OFFSET 34.140198 0.000000 0.000000
											CHANNELS 3 Xrotation Yrotation Zrotation
											JOINT LeftHand
											{
												OFFSET 40.960209 0.000000 0.000000
												CHANNELS 3 Xrotation Yrotation Zrotation
												End Site
												{
													OFFSET 0 0 0
												}
											}
										}
									}
								}
							}
						}
						JOINT RightShoulder_virtual
						{
							OFFSET 0.000000 0.000000 0.000000
							CHANNELS 3 Xrotation Yrotation Zrotation
							JOINT RightShoulder
							{
								OFFSET -6.292450 5.785301 -0.669000
								CHANNELS 3 Xrotation Yrotation Zrotation
								JOINT RightShoulder_split
								{
									OFFSET -6.292450 5.785301 -0.669000
									CHANNELS 3 Xrotation Yrotation Zrotation
									JOINT RightArm
									{
										OFFSET -13.907140 -6.093903 1.965100
										CHANNELS 3 Xrotation Yrotation Zrotation
										JOINT RightForeArm
										{
											OFFSET -34.140198 0.000000 0.000000
											CHANNELS 3 Xrotation Yrotation Zrotation
											JOINT RightHand
											{
												OFFSET -40.960209 0.000000 0.000000
												CHANNELS 3 Xrotation Yrotation Zrotation
												End Site
												{
													OFFSET 0 0 0
												}
											}
										}
									}
								}
							}
						}
					}
				}
			}
		}
	}
}
MOTION
Frames: 9
Frame Time: 0.03333333
28.738377 103.916733 10.508980 0.000000 0.000000 0.000000 156.439322 -66.150573 163.032886 -55.353957 42.808013 45.300741 36.594470 -2.614319 -2.845976 4.959735 9.407261 -2.106275 0.777474 4.249057 -6.855256 0.000000 0.000000 0.000000 158.259376 -66.185694 166.354721 -43.136681 -18.276874 -27.044057 32.138680 -5.464834 -1.371267 -9.556210 -2.896951 12.148024 -0.009913 2.772458 0.736750 0.000000 0.000000 0.000000 149.793931 -69.098647 156.020167 10.554169 -3.094537 -0.777526 5.485042 -3.080614 -2.813862 0.282875 -1.609537 0.949256 0.000000 0.000000 0.000000 -1.706184 -4.897890 -1.899806 4.615717 14.373209 -2.319498 -15.191809 10.930760 -3.225295 0.000000 0.000000 0.000000 -1.673858 -5.407673 -1.582137 -1.190197 -9.825684 -5.700016 0.530697 0.714759 0.854185 -24.814350 -14.324102 -47.676216 -14.533032 -28.290157 -14.695104 0.000000 0.000000 0.000000 -3.477951 -5.698746 -1.930164 -5.461520 19.345440 3.718578 1.074499 -3.412762 0.074962 -12.357230 -11.138839 60.432428 10.604844 38.097265 -2.089909 0.000000 0.000000 0.000000 
28.773129 103.468605 9.106861 0.000000 0.000000 0.000000 156.390240 -64.140531 163.141677 -59.211607 41.270274 47.487618 38.632551 -5.203664 -2.242019 8.201772 7.580516 0.449920 0.037652 4.683217 -8.309775 0.000000 0.000000 0.000000 158.637482 -63.391689 166.954931 -44.778071 -17.802456 -26.663090 33.035204 -4.497746 -1.194135 -10.882449 -1.372260 11.982665 -0.236294 3.110718 0.482581 0.000000 0.000000 0.000000 150.345345 -66.473320 156.801882 10.780802 -3.009844 -1.104515 4.809597 -2.152015 -2.933323 0.425682 -1.896402 0.823905 0.000000 0.000000 0.000000 -2.461053 -3.894631 -1.982446 3.933875 15.981331 -3.374302 -15.619931 12.451797 -3.262637 0.000000 0.000000 0.000000 -2.429622 -4.349925 -1.708154 -1.012212 -9.345235 -5.758842 0.550332 0.527457 0.493050 -25.123512 -15.810380 -47.774557 -15.734014 -30.731015 -14.944416 0.000000 0.000000 0.000000 -4.112357 -4.621291 -2.033414 -5.605993 19.154007 3.674538 1.094619 -3.328819 -0.154528 -11.765990 -11.304045 60.728250 12.764958 37.906102 -3.431835 0.000000 0.000000 0.000000 
28.635370 103.052299 7.941971 0.000000 0.000000 0.000000 156.494715 -62.431597 163.284442 -62.136430 39.972924 48.674243 39.692155 -7.863162 -1.465689 11.005118 5.863467 3.070760 -1.075487 4.712060 -8.939561 0.000000 0.000000 0.000000 158.949444 -60.914482 167.379742 -45.684980 -17.096071 -26.149997 33.941932 -3.607956 -1.068489 -12.632437 -0.052243 11.688437 -0.043571 3.285711 0.495102 0.000000 0.000000 0.000000 150.931335 -64.166137 157.549815 11.071977 -2.892295 -1.286102 4.181361 -1.258189 -3.127518 0.607275 -2.255907 0.782865 0.000000 0.000000 0.000000 -3.206814 -2.926103 -2.118372 3.410166 17.476523 -4.224613 -15.787878 13.783681 -3.240890 0.000000 0.000000 0.000000 -3.153806 -3.334356 -1.900397 -0.863965 -9.020954 -5.701070 0.802786 0.392872 0.221189 -25.462662 -15.866210 -48.114339 -17.063180 -33.173320 -15.350343 0.000000 0.000000 0.000000 -4.697590 -3.574488 -2.195112 -5.667900 18.954149 3.513528 1.007337 -3.270897 -0.345197 -10.817561 -11.488055 60.921230 14.593908 37.731778 -4.574941 0.000000 0.000000 0.000000 
28.289158 102.685410 6.837105 0.000000 0.000000 0.000000 156.720999 -60.965135 163.407563 -64.383016 38.935978 49.309898 39.617559 -10.451765 -0.794262 12.841514 4.279452 5.280861 -1.359031 4.237736 -8.867530 0.000000 0.000000 0.000000 159.225575 -58.779891 167.662525 -45.816878 -16.172969 -25.519648 34.848899 -2.914338 -0.976894 -14.786598 1.010048 11.115986 0.790424 3.327869 0.639116 0.000000 0.000000 0.000000 151.673667 -62.119635 158.355108 11.445386 -2.776314 -1.298768 3.601599 -0.432280 -3.372499 0.706553 -2.570566 0.786369 0.000000 0.000000 0.000000 -3.937733 -2.026587 -2.303950 3.049235 18.788402 -4.866017 -15.676879 14.895620 -3.128124 0.000000 0.000000 0.000000 -3.842401 -2.381716 -2.141162 -0.762194 -8.823208 -5.603026 1.210588 0.313274 0.031642 -25.734853 -14.642198 -48.485891 -18.390342 -35.435404 -15.824584 0.000000 0.000000 0.000000 -5.243187 -2.601751 -2.419442 -5.643881 18.729921 3.267971 0.846725 -3.379568 -0.491705 -9.644029 -11.648125 60.873911 15.978804 37.597258 -5.440365 0.000000 0.000000 0.000000 
27.688940 102.364037 5.884953 0.000000 0.000000 0.000000 157.190861 -59.579624 163.697955 -66.477439 37.764608 49.843275 39.125263 -12.990187 -0.356913 14.505841 2.730326 6.243315 -0.250685 3.248255 -8.184324 0.000000 0.000000 0.000000 159.518809 -56.975102 167.872362 -45.443120 -14.957807 -24.865169 35.784929 -2.287619 -0.911614 -16.965287 1.933602 10.587972 1.829591 3.278392 0.809224 0.000000 0.000000 0.000000 152.493112 -60.294151 159.077688 11.898627 -2.662037 -1.136760 3.072430 0.326372 -3.648589 0.640478 -2.702861 1.017898 0.000000 0.000000 0.000000 -4.617275 -1.193553 -2.519893 2.852799 19.866596 -5.340812 -15.322997 15.731946 -2.886624 0.000000 0.000000 0.000000 -4.503540 -1.489336 -2.409710 -0.712803 -8.759798 -5.532342 1.788104 0.314732 -0.060207 -25.813353 -12.534144 -48.812073 -19.596774 -37.354530 -16.243510 0.000000 0.000000 0.000000 -5.751053 -1.705243 -2.689620 -5.570062 18.509391 3.042746 0.630523 -3.607508 -0.597522 -8.296258 -11.712353 60.572310 16.790850 37.380266 -5.944531 0.000000 0.000000 0.000000 
26.831312 102.096001 4.973499 0.000000 0.000000 0.000000 157.979448 -58.153515 164.278125 -68.168805 36.182917 50.016089 38.818093 -15.432889 -0.077295 16.271353 1.259459 5.844506 0.877825 1.903093 -6.628613 0.000000 0.000000 0.000000 160.007495 -55.238311 168.230004 -44.939438 -13.575251 -24.344131 36.589931 -1.640570 -0.872040 -18.534333 2.741717 10.461440 2.415151 3.165920 0.903754 0.000000 0.000000 0.000000 153.484350 -58.541360 159.846562 12.408210 -2.524716 -0.851103 2.587372 1.059022 -3.933190 0.513276 -2.826444 1.233181 0.000000 0.000000 0.000000 -5.215012 -0.401056 -2.743085 2.826338 20.660294 -5.756855 -14.827340 16.226923 -2.508727 0.000000 0.000000 0.000000 -5.133653 -0.633378 -2.684984 -0.706856 -8.800746 -5.561681 2.499792 0.230123 -0.105054 -25.549678 -10.041044 -48.983091 -20.560838 -38.870675 -16.528723 0.000000 0.000000 0.000000 -6.245635 -0.868947 -2.972924 -5.452542 18.302486 2.909334 0.321886 -3.838436 -0.582710 -6.778177 -11.754005 60.097004 16.931614 36.808829 -6.014834 0.000000 0.000000 0.000000 
25.628927 101.824860 4.143723 0.000000 0.000000 0.000000 159.117876 -56.516967 165.246988 -68.962371 34.507939 49.471914 38.765790 -17.061763 0.027566 16.880889 0.417952 5.288611 0.540595 0.395246 -4.255058 0.000000 0.000000 0.000000 160.806928 -53.415508 168.924307 -44.424653 -12.226874 -23.945643 37.320980 -0.960120 -0.844242 -19.283909 3.398002 10.703956 2.490679 3.004507 0.900235 0.000000 0.000000 0.000000 154.678677 -56.780705 160.787202 12.933012 -2.320661 -0.524615 2.143588 1.806104 -4.198259 0.296573 -2.875693 1.428967 0.000000 0.000000 0.000000 -5.710176 0.386422 -2.943581 2.928652 21.144474 -6.201644 -14.324133 16.342602 -1.985883 0.000000 0.000000 0.000000 -5.726723 0.221560 -2.945082 -0.725736 -8.910735 -5.682828 3.259859 0.081341 -0.116997 -24.737697 -7.613228 -48.976049 -21.201298 -39.978371 -16.628954 0.000000 0.000000 0.000000 -6.729064 -0.058140 -3.244799 -5.289861 18.097638 2.873657 0.072523 -3.894062 -0.555003 -5.074590 -11.824470 59.603393 16.364940 35.759595 -5.672882 0.000000 0.000000 0.000000 
24.145695 101.477631 3.393902 0.000000 0.000000 0.000000 160.505101 -54.690691 166.549737 -68.875949 33.106794 48.190991 38.833068 -17.296689 -0.050351 15.369375 0.640426 5.547071 -0.970953 -1.201622 -1.689661 0.000000 0.000000 0.000000 161.847165 -51.499715 169.921665 -43.814373 -11.081075 -23.620343 37.902444 -0.377251 -0.809472 -19.678243 3.839228 11.015173 2.414435 2.800468 0.836604 0.000000 0.000000 0.000000 155.997573 -54.925977 161.892163 13.448356 -2.020090 -0.297903 1.732630 2.604956 -4.416832 0.109993 -3.001878 1.556571 0.000000 0.000000 0.000000 -6.108188 1.197926 -3.087471 3.153462 21.288351 -6.748512 -13.962511 16.119781 -1.337178 0.000000 0.000000 0.000000 -6.299554 1.090406 -3.166813 -0.746487 -9.052915 -5.836706 4.016407 -0.148306 -0.046860 -23.396166 -5.552567 -48.843711 -21.458854 -40.617977 -16.502888 0.000000 0.000000 0.000000 -7.210250 0.764098 -3.463238 -5.086496 17.877189 2.890148 -0.171797 -3.599130 -0.598726 -3.218265 -12.050863 59.212952 15.148046 34.378627 -5.031653 0.000000 0.000000 0.000000 
22.432659 101.023087 2.760040 0.000000 0.000000 0.000000 161.896111 -52.723251 167.956250 -68.115031 32.020637 46.267206 38.838013 -16.491147 -0.166897 12.216246 1.593717 6.227045 -2.176889 -2.729522 0.273650 0.000000 0.000000 0.000000 163.002574 -49.540885 171.130813 -42.998609 -10.317752 -23.437728 38.473694 -0.098464 -0.734617 -19.988545 3.924433 11.108516 2.288001 2.565679 0.745913 0.000000 0.000000 0.000000 157.325812 -53.041412 163.186866 13.920903 -1.650940 -0.313843 1.337950 3.441350 -4.563079 0.055011 -3.240543 1.559793 0.000000 0.000000 0.000000 -6.452744 2.028810 -3.145446 3.488120 21.104962 -7.450605 -13.822314 15.601144 -0.604369 0.000000 0.000000 0.000000 -6.863380 1.971172 -3.307092 -0.759470 -9.151441 -5.951603 4.661543 -0.278658 0.075237 -21.604886 -4.029329 -48.635465 -21.406151 -40.917980 -16.222845 0.000000 0.000000 0.000000 -7.680416 1.592562 -3.589315 -4.841110 17.576689 2.847468 -0.315837 -2.978378 -0.620340 -1.239604 -12.591867 59.041371 13.380596 33.058618 -4.258518 0.000000 0.000000 0.000000 
